<?xml version="1.0" encoding="utf-8"?>
<!-- Generator: Adobe Illustrator 16.0.0, SVG Export Plug-In . SVG Version: 6.00 Build 0)  -->
<!DOCTYPE svg PUBLIC "-//W3C//DTD SVG 1.1//EN" "http://www.w3.org/Graphics/SVG/1.1/DTD/svg11.dtd">
<svg version="1.1" id="Camada_1" xmlns="http://www.w3.org/2000/svg" xmlns:xlink="http://www.w3.org/1999/xlink" x="0px" y="0px"
	 width="830.176px" height="830.35px" viewBox="0 0 830.176 830.35" enable-background="new 0 0 830.176 830.35"
	 xml:space="preserve">
<g>
	<g>
		<path fill-rule="evenodd" clip-rule="evenodd" fill="#FD1920" d="M1.843,416.099C1.843,280.53,1.9,144.964,1.666,9.397
			c-0.01-6.315,1.24-7.558,7.556-7.552c271.747,0.203,543.495,0.203,815.245,0c6.313-0.006,7.557,1.237,7.553,7.552
			c-0.205,271.748-0.205,543.496,0,815.245c0.004,6.313-1.236,7.557-7.553,7.553c-271.748-0.205-543.496-0.205-815.244,0
			c-6.313,0.004-7.566-1.234-7.557-7.553C1.9,688.46,1.843,552.279,1.843,416.099z M609.271,503.625
			c2.49-4.704,6.803-5.2,10.838-3.395c3.326,1.487,4.998,0.643,4.707-2.258c-0.566-5.648,2.35-8.927,7.828-11.841
			c-5.885-1.931-12.941,1.05-13.939-7.174c-0.186-1.531-3.293-1.524-3.438,0.036c-0.764,8.255-8.004,5.064-13.611,7.383
			c10.314,3.3,5.869,11.38,7.6,17.281c-0.244-0.554-0.486-1.104-0.73-1.656c-0.244,0.188-0.488,0.375-0.732,0.563
			C608.284,502.919,608.778,503.272,609.271,503.625z M548.013,499.304c6.342,1.942,13.809-5.608,20.268,3.356
			c-6.656-9.48,0.164-13.621,6.27-18.386c-5.768-1.374-11.672,1.179-14.689-4.798c-0.35-0.69-2.396-2.011-2.875-0.501
			c-2.209,6.964-9.029,2.63-13.633,5.746c5.609,3.81,10.182,7.891,4.682,14.586c0.256,0.809,0.514,1.619,0.77,2.43
			c0.35-0.284,0.699-0.567,1.051-0.852C549.241,500.359,548.626,499.832,548.013,499.304z M304.737,560.135
			c-0.001-0.909-0.002-1.819-0.002-2.729c-3.677,0-7.353-0.031-11.028,0.005c-76.351,0.733-152.693-0.31-229.023-1.704
			c-13.078-0.239-23.889,1.721-33.748,10.539c-12.638,11.305-17.685,25.927-12.465,39.388c6.487,16.73,24.111,29.23,39.795,28.25
			c15.291-0.959,30.573-2.135,45.877-2.787c47.528-2.025,95.069-3.74,142.598-5.773c100.851-4.311,201.695-8.758,302.546-13.115
			c15.289-0.662,14.717-0.299,21.172,13.098c7.223,14.99,18.066,26.279,36.041,27.596c6.113,0.445,12.271,0.666,18.396,0.512
			c59.748-1.508,119.5-2.684,179.268-2.766c13.586-0.02,13.631-0.008,13.648-13.541c0.023-16.15,1.791-14.557-14.26-13.697
			c-36.75,1.969-73.551,1.404-110.297,2.857c-8.75,0.346-11.848-2.525-10.979-10.783c0.16-1.52,0.074-3.072,0.023-4.607
			c-0.24-7.162,1.674-11.012,10.371-10.965c34.619,0.182,69.242-0.441,103.863-0.789c20.604-0.207,20.166-0.238,20.775-20.701
			c0.234-7.931-2.752-8.924-9.477-8.711c-35.867,1.135-71.746,1.826-107.617,2.801c-17.732,0.483-17.418,0.593-18.512-16.945
			c-0.484-7.764,1.959-9.865,9.721-9.797c34.598,0.306,69.203,0.018,103.803-0.224c21.244-0.147,20.855-0.292,21.314-21.126
			c0.162-7.288-2.354-8.641-8.818-8.542c-41.975,0.646-83.955,0.335-125.914,2.376c-24.789,1.205-49.641,1.149-74.465,1.602
			c-16.992,0.308-29.154,8.204-36.758,23.25c-1.797,3.556-3.619,7.182-4.732,10.979c-1.551,5.301-4.402,7.216-10.049,6.8
			c-9.465-0.699-18.992-0.714-28.492-0.721C453.122,560.113,378.929,560.135,304.737,560.135z M534.179,262.986
			c-5.648,4.057-7.232,9.606-9.27,14.532c-10.641,25.736-27.516,46.088-51.475,60.291c-22.596,13.394-46.873,16.535-71.406,7.259
			c-30.277-11.447-41.864-36.574-42.696-66.879c-1.585-57.695,21.57-104.798,64.802-142.105
			c13.263-11.445,28.601-20.218,46.888-21.305c12.367-0.735,17.613,4.485,18.016,16.524c0.471,14.1-6.395,25.39-13.857,36.294
			c-9.848,14.386-22.557,25.925-38.785,34.551c15.75,8.904,30.609,12.735,46.979,6.544c11.982-4.532,21.068-12.313,27.619-23.131
			c3.633-6.002,6.406-8.19,13.127-2.259c10.438,9.213,23.395,12.03,38.119,9.309c-5.91-9.316-11.006-18.014-11.957-28.346
			c-1.84-19.99,0.133-38.814,17.291-52.486c11.006-8.768,25.545-4.581,29.412,8.727c1.768,6.079,2.492,12.412,1.758,19.075
			c-3.795,34.332-15.33,66.809-23.408,100.103c-9.18,37.834-18.965,75.523-28.178,113.351c-3.307,13.572-0.164,21.438,10.309,27.701
			c7.361,4.402,15.621,5.051,24.031,4.475c4.594-0.315,5.031-3.322,5.25-7.054c3.205-54.307,19.176-106.014,32.346-158.292
			c0.701-2.781,1.602-5.84,5.078-5.453c3.029,0.337,2.842,3.379,3.25,5.816c3.025,18.125,5.5,36.377,9.383,54.321
			c7.484,34.575,18.16,67.85,38.68,97.521c8.176,11.825,18.854,14.37,31.375,15.287c5.951,0.436,8.951-0.96,8.451-7.987
			c-0.451-6.346,0.486-12.877,1.459-19.226c5.707-37.317,14.549-73.972,24.006-110.47c10.828-41.795,22.102-83.476,33.127-125.221
			c3.701-14.015-0.313-21.045-14.393-25.431c-3.205-0.998-6.516-1.665-9.76-2.545c-5.514-1.499-8.139,0.467-9.555,6.175
			c-6.785,27.35-13.9,54.618-21.02,81.883c-10.297,39.436-20.725,78.837-30.996,118.28c-0.74,2.848-1.174,5.598-4.822,5.551
			c-3.271-0.04-3.641-2.966-4.326-5.188c-2.715-8.786-5.525-17.556-7.807-26.46c-10.664-41.647-17.074-84.03-22.189-126.676
			c-4.514-37.644-34.734-62.967-70.195-59.17c-21.188,2.268-38,12.724-50.865,29.709c-5.902,7.792-7.096,7.65-12.439-0.656
			c-17.109-26.602-42.787-34.417-72.311-31.327c-33.071,3.462-59.281,20.557-80.041,45.756
			c-42.461,51.545-59.63,109.934-43.732,175.838c12.74,52.817,59.248,81.059,112.236,68.555
			c50.254-11.859,83.174-43.678,100.305-91.876C534.489,279.842,538.456,272.045,534.179,262.986z M435.663,664.06
			c0-0.23,0-0.463,0-0.693c-24.564,0-49.13,0.049-73.695-0.01c-97.295-0.227-194.592-0.244-291.883-0.973
			c-16.564-0.123-29.016,5.779-39.421,17.822c-9.331,10.799-11.962,20.871-5.519,31.041c8.001,12.631,16.963,26.018,34.432,25.098
			c20.507-1.076,40.906-4.086,61.386-5.865c102.174-8.877,204.378-17.436,306.521-26.65c13.416-1.209,25.251-0.766,35.906,8.52
			c4.059,3.539,9.336,5.789,14.266,8.203c31.791,15.568,65.533,23.914,100.641,27.678c63.033,6.758,124.406,2.008,182.877-24.695
			c23.748-10.846,44.545-24.748,54.152-50.742c3.428-9.273,3.402-9.539-6.768-9.467c-34.375,0.252-68.75,0.664-103.123,0.701
			C615.511,664.126,525.587,664.06,435.663,664.06z M108.769,454.966c1.461,5.839,4.065,7.722,6.973,8.52
			c9.396,2.581,8.92,8.37,6.732,16.135c-3.902,13.847-7.069,27.916-10.045,41.996c-1.793,8.488,2.242,13.63,10.494,14.81
			c3.729,0.531,6.216,0.391,6.49-4.782c1.145-21.543,7.416-42.15,12.162-63.034c0.578-2.543,1.066-4.845,4.088-5.348
			c7.235-1.203,14.479-2.365,21.711-3.582c2.601-0.438,6.553,3.716,7.606-1.182c0.877-4.076-1.829-7.596-5.633-9.688
			c-4.988-2.745-10.201-0.771-15.343-0.711c-2.344,0.026-6.848,1.419-5.993-3.071c1.943-10.215,4.69-20.287,7.467-30.318
			c0.354-1.28,2.724-2.505,4.353-2.856c13.76-2.963,27.308-7.171,41.684-6.463c6.705,0.332,12.104,1.493,11.23,10.969
			c6.242-4.699,10.903-9.188,10.138-15.8c-0.724-6.239-6.708-8.012-11.984-9.865c-3.919-1.376-7.912-1.257-11.847-0.766
			c-5.215,0.652-7.552-1.144-8.685-6.489c-1.376-6.49-3.12-12.845-1.555-20.667c-8.937,11.323-21.075,6.882-30.976,9.793
			c-10.318,3.033-19.852,8.237-31.676,12.129c5.008-11.737,14.801-12.866,23.446-16.328c-7.782-4.737-14.954-3.122-21.917,0.27
			c-3.457-8.687-1.514-15.78,2.875-22.562c10.983-16.973,44.047-20.741,58.331-6.589c3.172,3.143,5.293,6.787,4.236,11.524
			c-0.276,1.241-2.219,2.77,0.528,3.415c1.769,0.414,2.674-0.766,3.512-2.221c3.729-6.477,1.211-11.762-3.057-16.715
			c-15.945-18.511-47.527-16.249-64.445,5.066c-6.17,7.776-13.679,10.462-23.025,10.1c-0.703-3.997,1.903-5.996,3.879-8.233
			c21.087-23.861,42.332-47.586,63.17-71.663c2.945-3.404,5.666-4.982,9.942-5.087c16.872-0.416,33.753-0.738,50.601-1.661
			c8.297-0.454,9.91,2.409,8.351,10.233c-4.136,20.755-7.472,41.675-6.689,62.979c0.401,10.951,2.813,21.31,10.29,29.785
			c12.559,14.237,28.452,14.201,46.525,10.465c-9.453-8.302-11.22-18.884-12.729-29.52c-3.488-24.608,0.107-48.936,2.829-73.322
			c0.864-7.742,5.166-7.459,10.829-6.393c3.185,0.6,7.732,3.401,8.567-2.873c1.372-10.327,0.871-20.686-6.331-28.773
			c-3.894-4.374-4.162-7.906-2.888-13.131c8.718-35.729,19.086-70.889,33.679-104.733c3.172-7.36,5.479-15.152-0.921-22.418
			c-11.608-13.183-33.515-13.625-44.94-0.632c-37.602,42.754-75.199,85.513-112.609,128.434
			c-8.027,9.209-16.841,15.728-29.182,19.057c-29.94,8.075-58.391,20.209-83.984,38.045c-13.948,9.719-26.301,21.123-31.672,38.195
			c-6.875,21.852,4.398,40.852,26.879,45.338c10.996,2.194,21.302-0.646,31.621-3.734c2.908-0.87,6.684-2.882,8.54-0.324
			c1.524,2.1-0.476,5.512-2.206,8.284c-5.134,8.228-7.855,17.286-6.801,27.126c1.483,13.844,11.98,25.282,23.132,23.691
			c7.01-1,13.991-1.068,20.958-1.811c12.034-1.281,12.281-1.088,9.584,10.57c-0.346,1.495-0.654,3-0.894,4.516
			C131.962,447.1,128.595,459.91,108.769,454.966z M327.812,515.688c-16.558-3.031-18.63-5.852-15.232-23.682
			c2.119-11.123,5.063-22.103,7.952-33.065c6.567-24.919,0.083-21.388,26.896-21.16c-0.075-5.987-4.868-8.192-8.946-8.423
			c-9.636-0.546-9.117-5.666-7.096-12.35c0.524-1.737,0.666-3.635,0.719-5.465c0.198-6.805-5.22-7.601-9.909-8.738
			c-5.548-1.348-4.604,3.564-5.416,6.406c-5.479,19.193-5.44,19.17-26.522,19.283c-1.872,0.012-4.571-1.457-5.521,1.435
			c-0.741,2.255,0.889,3.976,2.266,5.698c3.585,4.491,9.031,4.08,13.615,4.322c7.233,0.381,7.959,3.057,6.089,9.242
			c-2.835,9.373-4.745,19.021-7.269,28.494c-3.281,12.324-3.506,25.558-11.035,36.643c-1.463,2.15-2.736,4.046-5.588,4.022
			c-3.539-0.033-3.664-3.041-3.979-5.229c-0.767-5.358-3.297-9.993-6.104-14.278c-4.922-7.513-4.581-13.483,1.628-20.462
			c4.734-5.322,8.656-12.264,6.805-20.106c-1.551-6.576-6.6-10.208-13.131-11.19c-8.262-1.245-15.504,1.381-20.104,8.381
			c-5.189,7.896-7.413,16.466-3.125,25.906c1.518,3.344,4.559,7.034,1.562,11.181c-5.655,7.82-12.14,14.714-21.715,17.657
			c-9.735,2.993-20.729,0.101-25.16-6.438c-1.594-2.353-2.897-5.053-1.667-7.768c1.11-2.449,3.818-1.146,5.785-1.188
			c9.676-0.211,17.893-3.889,25.01-10.224c9.857-8.773,11.388-15.771,5.77-25.784c-4.652-8.29-15.199-11.806-25.689-8.563
			c-17.547,5.426-31.53,25.511-30.443,43.733c0.859,14.391,7.799,23.61,21.809,27.065c16.479,4.062,29.006-3.688,40.062-14.946
			c13.214-13.455,13.933-13.254,20.826,4.93c4.695,12.387,1.772,16.93-11.053,17.23c-1.085,0.025-2.527-0.35-2.634,1.495
			c8.275,6.147,16.122,7.289,24.771,3.599c7.325-3.125,12.68-8.435,16.771-15.146c3.033-4.98,5.413-7.704,10.462-0.978
			C306.678,527.101,319.796,525.955,327.812,515.688z M490.341,498.186c6.115,0,11.244-0.006,16.373,0.004
			c1.752,0.003,3.076,0.604,2.496,2.637c-0.17,0.598-1.334,1.438-1.852,1.32c-2.156-0.49-2.299-1.36-1.465-3.756
			c1.861-5.346,2.732-11.045,8.494-14.652c-8.332,1.329-12.146-2.916-14.23-10.586c-1.086,9.761-8.221,9.247-15.439,10
			C491.091,486.676,494.403,490.871,490.341,498.186z M683.989,503.098c-4.979-8.772,2.148-12.284,7.992-18.111
			c-9.281,2.61-14.031-0.171-16.912-7.79c-0.986,10.098-8.154,8.1-15.609,8.66c7.811,4.437,9.193,10.341,6.545,19.827
			C672.755,498.137,677.993,499.834,683.989,503.098z M431.604,501.466c6.717-7.365,12.289-5.499,20.135-1.324
			c-5.283-9.019-0.023-13.233,5.414-18.911c-8.52,2.037-13.221-0.401-15.98-7.846c-1.064,9.426-8.25,7.619-15.869,8.889
			C434.345,486.343,434.04,492.51,431.604,501.466z M372.412,484.159c-0.002,0.104-0.002,0.209-0.004,0.313
			c8.291,0,16.582,0,24.873,0c0-0.104,0.002-0.209,0.004-0.313C388.994,484.159,380.703,484.159,372.412,484.159z M745.593,490.069
			c0.002-0.11,0.004-0.22,0.006-0.331c-8.402,0-16.805,0-25.207,0c-0.002,0.111-0.004,0.221-0.006,0.331
			C728.788,490.069,737.19,490.069,745.593,490.069z"/>
		<path fill-rule="evenodd" clip-rule="evenodd" fill="#FDF9F9" d="M304.737,560.135c74.192,0,148.385-0.021,222.577,0.027
			c9.5,0.007,19.027,0.021,28.492,0.721c5.646,0.416,8.498-1.499,10.049-6.8c1.113-3.797,2.936-7.423,4.732-10.979
			c7.604-15.046,19.766-22.942,36.758-23.25c24.824-0.452,49.676-0.396,74.465-1.602c41.959-2.041,83.939-1.729,125.914-2.376
			c6.465-0.099,8.98,1.254,8.818,8.542c-0.459,20.834-0.07,20.979-21.314,21.126c-34.6,0.241-69.205,0.529-103.803,0.224
			c-7.762-0.068-10.205,2.033-9.721,9.797c1.094,17.538,0.779,17.429,18.512,16.945c35.871-0.975,71.75-1.666,107.617-2.801
			c6.725-0.213,9.711,0.78,9.477,8.711c-0.609,20.463-0.172,20.494-20.775,20.701c-34.621,0.348-69.244,0.971-103.863,0.789
			c-8.697-0.047-10.611,3.803-10.371,10.965c0.051,1.535,0.137,3.088-0.023,4.607c-0.869,8.258,2.229,11.129,10.979,10.783
			c36.746-1.453,73.547-0.889,110.297-2.857c16.051-0.859,14.283-2.453,14.26,13.697c-0.018,13.533-0.063,13.521-13.648,13.541
			c-59.768,0.082-119.52,1.258-179.268,2.766c-6.125,0.154-12.283-0.066-18.396-0.512c-17.975-1.316-28.818-12.605-36.041-27.596
			c-6.455-13.396-5.883-13.76-21.172-13.098c-100.852,4.357-201.696,8.805-302.546,13.115c-47.528,2.033-95.069,3.748-142.598,5.773
			c-15.304,0.652-30.586,1.828-45.877,2.787c-15.684,0.98-33.308-11.52-39.795-28.25c-5.22-13.461-0.173-28.083,12.465-39.388
			c9.859-8.818,20.67-10.778,33.748-10.539c76.33,1.395,152.673,2.438,229.023,1.704c3.676-0.036,7.352-0.005,11.028-0.005
			C304.735,558.315,304.736,559.226,304.737,560.135z"/>
		<path fill-rule="evenodd" clip-rule="evenodd" fill="#FDF9F9" d="M534.179,262.986c4.277,9.059,0.311,16.856-2.188,23.886
			c-17.131,48.199-50.051,80.017-100.305,91.876c-52.988,12.504-99.496-15.737-112.236-68.555
			c-15.897-65.904,1.271-124.292,43.732-175.838c20.76-25.199,46.97-42.294,80.041-45.756c29.523-3.091,55.201,4.725,72.311,31.327
			c5.344,8.306,6.537,8.448,12.439,0.656c12.865-16.985,29.678-27.441,50.865-29.709c35.461-3.797,65.682,21.526,70.195,59.17
			c5.115,42.646,11.525,85.028,22.189,126.676c2.281,8.904,5.092,17.674,7.807,26.46c0.686,2.221,1.055,5.148,4.326,5.188
			c3.648,0.047,4.082-2.704,4.822-5.551c10.271-39.443,20.699-78.845,30.996-118.28c7.119-27.265,14.234-54.534,21.02-81.883
			c1.416-5.708,4.041-7.673,9.555-6.175c3.244,0.881,6.555,1.547,9.76,2.545c14.08,4.386,18.094,11.416,14.393,25.431
			c-11.025,41.745-22.299,83.425-33.127,125.221c-9.457,36.498-18.299,73.153-24.006,110.47c-0.973,6.349-1.91,12.88-1.459,19.226
			c0.5,7.027-2.5,8.423-8.451,7.987c-12.521-0.917-23.199-3.462-31.375-15.287c-20.52-29.671-31.195-62.947-38.68-97.521
			c-3.883-17.943-6.357-36.195-9.383-54.321c-0.408-2.437-0.221-5.479-3.25-5.816c-3.477-0.387-4.377,2.671-5.078,5.453
			c-13.17,52.278-29.141,103.986-32.346,158.292c-0.219,3.732-0.656,6.738-5.25,7.054c-8.41,0.576-16.67-0.072-24.031-4.475
			c-10.473-6.263-13.615-14.128-10.309-27.701c9.213-37.827,18.998-75.516,28.178-113.351
			c8.078-33.293,19.613-65.771,23.408-100.103c0.734-6.663,0.01-12.996-1.758-19.075c-3.867-13.308-18.406-17.495-29.412-8.727
			c-17.158,13.671-19.131,32.496-17.291,52.486c0.951,10.332,6.047,19.03,11.957,28.346c-14.725,2.722-27.682-0.096-38.119-9.309
			c-6.721-5.932-9.494-3.743-13.127,2.259c-6.551,10.818-15.637,18.599-27.619,23.131c-16.369,6.191-31.229,2.36-46.979-6.544
			c16.229-8.626,28.938-20.165,38.785-34.551c7.463-10.904,14.328-22.194,13.857-36.294c-0.402-12.039-5.648-17.259-18.016-16.524
			c-18.287,1.086-33.625,9.86-46.888,21.305c-43.231,37.307-66.387,84.411-64.802,142.105c0.832,30.305,12.419,55.432,42.696,66.879
			c24.533,9.276,48.81,6.135,71.406-7.259c23.959-14.203,40.834-34.555,51.475-60.291
			C526.946,272.592,528.53,267.043,534.179,262.986z"/>
		<path fill-rule="evenodd" clip-rule="evenodd" fill="#FDF9F9" d="M435.663,664.06c89.924,0,179.848,0.066,269.771-0.033
			c34.373-0.037,68.748-0.449,103.123-0.701c10.17-0.072,10.195,0.193,6.768,9.467c-9.607,25.994-30.404,39.896-54.152,50.742
			c-58.471,26.703-119.844,31.453-182.877,24.695c-35.107-3.764-68.85-12.109-100.641-27.678c-4.93-2.414-10.207-4.664-14.266-8.203
			c-10.654-9.285-22.49-9.729-35.906-8.52c-102.143,9.215-204.347,17.773-306.521,26.65c-20.479,1.779-40.879,4.789-61.386,5.865
			c-17.469,0.92-26.431-12.467-34.432-25.098c-6.443-10.17-3.813-20.242,5.519-31.041c10.405-12.043,22.856-17.945,39.421-17.822
			c97.291,0.729,194.588,0.746,291.883,0.973c24.564,0.059,49.131,0.01,73.695,0.01C435.663,663.597,435.663,663.829,435.663,664.06
			z"/>
		<path fill-rule="evenodd" clip-rule="evenodd" fill="#FDF9F9" d="M108.769,454.966c19.826,4.944,23.193-7.866,25.407-21.899
			c0.239-1.516,0.548-3.021,0.894-4.516c2.697-11.658,2.45-11.852-9.584-10.57c-6.967,0.742-13.948,0.811-20.958,1.811
			c-11.151,1.591-21.648-9.847-23.132-23.691c-1.055-9.84,1.667-18.898,6.801-27.126c1.73-2.772,3.73-6.184,2.206-8.284
			c-1.856-2.558-5.632-0.546-8.54,0.324c-10.319,3.087-20.625,5.928-31.621,3.734c-22.48-4.487-33.754-23.486-26.879-45.338
			c5.371-17.072,17.724-28.476,31.672-38.195c25.594-17.836,54.044-29.971,83.984-38.045c12.341-3.329,21.154-9.847,29.182-19.057
			c37.41-42.921,75.008-85.68,112.609-128.434c11.426-12.992,33.332-12.551,44.94,0.632c6.399,7.266,4.093,15.058,0.921,22.418
			c-14.593,33.845-24.961,69.004-33.679,104.733c-1.274,5.225-1.006,8.757,2.888,13.131c7.202,8.087,7.703,18.446,6.331,28.773
			c-0.835,6.273-5.383,3.473-8.567,2.873c-5.663-1.066-9.965-1.349-10.829,6.393c-2.722,24.387-6.317,48.714-2.829,73.322
			c1.509,10.636,3.275,21.218,12.729,29.52c-18.073,3.736-33.967,3.771-46.525-10.465c-7.477-8.475-9.889-18.833-10.29-29.785
			c-0.782-21.305,2.554-42.224,6.689-62.979c1.56-7.824-0.054-10.687-8.351-10.233c-16.848,0.922-33.729,1.245-50.601,1.661
			c-4.276,0.104-6.997,1.683-9.942,5.087c-20.838,24.077-42.083,47.802-63.17,71.663c-1.976,2.237-4.582,4.236-3.879,8.233
			c9.347,0.362,16.855-2.324,23.025-10.1c16.918-21.315,48.5-23.578,64.445-5.066c4.268,4.953,6.785,10.238,3.057,16.715
			c-0.838,1.456-1.743,2.635-3.512,2.221c-2.747-0.645-0.805-2.174-0.528-3.415c1.057-4.737-1.064-8.381-4.236-11.524
			c-14.284-14.152-47.348-10.384-58.331,6.589c-4.389,6.782-6.332,13.875-2.875,22.562c6.963-3.392,14.135-5.007,21.917-0.27
			c-8.646,3.462-18.438,4.591-23.446,16.328c11.824-3.893,21.357-9.096,31.676-12.129c9.9-2.911,22.039,1.529,30.976-9.793
			c-1.565,7.823,0.179,14.177,1.555,20.667c1.133,5.346,3.47,7.142,8.685,6.489c3.935-0.491,7.928-0.61,11.847,0.766
			c5.276,1.854,11.261,3.626,11.984,9.865c0.766,6.612-3.896,11.101-10.138,15.8c0.873-9.476-4.525-10.637-11.23-10.969
			c-14.376-0.708-27.924,3.5-41.684,6.463c-1.629,0.352-3.998,1.576-4.353,2.856c-2.776,10.031-5.523,20.104-7.467,30.318
			c-0.854,4.49,3.649,3.098,5.993,3.071c5.142-0.06,10.354-2.034,15.343,0.711c3.804,2.092,6.51,5.611,5.633,9.688
			c-1.054,4.897-5.006,0.743-7.606,1.182c-7.232,1.217-14.476,2.379-21.711,3.582c-3.021,0.503-3.51,2.805-4.088,5.348
			c-4.746,20.884-11.018,41.491-12.162,63.034c-0.274,5.173-2.762,5.313-6.49,4.782c-8.252-1.18-12.287-6.321-10.494-14.81
			c2.976-14.08,6.143-28.149,10.045-41.996c2.188-7.765,2.664-13.554-6.732-16.135C112.834,462.688,110.23,460.805,108.769,454.966z
			 M113.617,279.032c-21.484,4.377-42.447,9.437-58.896,25.055c-3.852,3.658-6.624,8.179-7.871,13.27
			c-1.27,5.182-3.643,11.29,1.605,15.312c4.951,3.793,10.004,0.272,14.41-2.405C83.963,317.446,97.65,297.251,113.617,279.032z
			 M95.726,412.068c0.184-3.764,0.343-6.179,0.411-8.596c0.181-6.386-0.049-13.045,8.777-5.175c3.683,3.284,6.616,2.091,7.928-2.815
			c0.552-2.061,1.456-4.029,2.225-6.03c1.974-5.146,4.158-10.135,7.039-14.917c4.327-7.185-0.243-14.56-2.455-20.865
			c-0.945-2.698-8.366,2.386-12.269,4.847C88.466,370.436,82.74,394.606,95.726,412.068z M263.852,176.55
			c-0.64-0.348-1.278-0.695-1.917-1.041c-14.246,16.166-28.49,32.33-43.516,49.382c10.54,0,19.584-0.041,28.628,0.023
			c2.968,0.022,4.417-1.455,5.128-4.17C256.041,206.005,259.955,191.28,263.852,176.55z M118.101,400.749
			c12.016,0.306,20.854-0.802,29.414-5.134c10.4-5.263,21.26-9.552,33.182-10.24c1.918-0.112,5.56,1.771,5.258-2.455
			c-0.26-3.644-2.642-5.229-6.497-4.251c-10.099,2.565-20.354,4.595-30.31,7.621C139.047,389.36,128.955,392.786,118.101,400.749z"
			/>
		<path fill-rule="evenodd" clip-rule="evenodd" fill="#FDF9F9" d="M327.812,515.688c-8.016,10.268-21.134,11.413-28.544,1.539
			c-5.049-6.727-7.429-4.003-10.462,0.978c-4.091,6.712-9.445,12.021-16.771,15.146c-8.648,3.69-16.495,2.549-24.772-3.599
			c0.108-1.845,1.551-1.47,2.636-1.495c12.825-0.301,15.748-4.844,11.053-17.23c-6.894-18.184-7.612-18.385-20.826-4.93
			c-11.056,11.258-23.583,19.008-40.062,14.946c-14.01-3.455-20.949-12.675-21.809-27.065
			c-1.087-18.223,12.896-38.308,30.443-43.733c10.49-3.242,21.037,0.273,25.689,8.563c5.618,10.013,4.088,17.011-5.77,25.784
			c-7.117,6.335-15.334,10.013-25.01,10.224c-1.967,0.043-4.675-1.261-5.785,1.188c-1.23,2.715,0.073,5.415,1.667,7.768
			c4.431,6.538,15.425,9.431,25.16,6.438c9.575-2.943,16.06-9.837,21.715-17.657c2.997-4.146-0.044-7.837-1.562-11.181
			c-4.288-9.44-2.064-18.01,3.125-25.906c4.6-7,11.842-9.626,20.104-8.381c6.531,0.982,11.58,4.614,13.131,11.19
			c1.852,7.843-2.07,14.784-6.805,20.106c-6.209,6.979-6.55,12.949-1.628,20.462c2.808,4.285,5.338,8.92,6.104,14.278
			c0.314,2.188,0.439,5.196,3.979,5.229c2.852,0.023,4.125-1.872,5.588-4.022c7.529-11.085,7.754-24.318,11.035-36.643
			c2.523-9.473,4.434-19.121,7.269-28.494c1.87-6.186,1.145-8.861-6.089-9.242c-4.584-0.242-10.03,0.169-13.615-4.322
			c-1.377-1.723-3.007-3.443-2.266-5.698c0.95-2.892,3.649-1.423,5.521-1.435c21.082-0.113,21.044-0.09,26.522-19.283
			c0.812-2.842-0.132-7.754,5.416-6.406c4.689,1.138,10.107,1.934,9.909,8.738c-0.053,1.83-0.194,3.728-0.719,5.465
			c-2.021,6.684-2.54,11.804,7.096,12.35c4.078,0.23,8.871,2.436,8.946,8.423c-26.813-0.228-20.329-3.759-26.896,21.16
			c-2.89,10.963-5.833,21.942-7.952,33.065C309.182,509.836,311.254,512.656,327.812,515.688z M223.75,466.871
			c0.302-6.135-3.478-6.372-7.87-5.171c-6.048,1.655-15.721,13.799-16.357,20.063c-0.178,1.746-0.051,2.807,2.049,3.15
			C208.843,486.106,223.343,474.396,223.75,466.871z M266.416,478.855c5.111-3.891,6.963-9.073,6.793-15.086
			c-0.09-3.166-2.004-5.271-5.217-5.214c-2.791,0.052-4.244,1.999-4.559,4.823C262.839,468.692,263.5,473.747,266.416,478.855z"/>
		<path fill-rule="evenodd" clip-rule="evenodd" fill="#FDF9F9" d="M490.341,498.186c4.063-7.314,0.75-11.51-5.623-15.033
			c7.219-0.753,14.354-0.239,15.439-10c2.084,7.67,5.898,11.915,14.23,10.586c-5.762,3.607-6.633,9.307-8.494,14.652
			c-0.834,2.396-0.691,3.266,1.465,3.756c0.518,0.117,1.682-0.723,1.852-1.32c0.58-2.033-0.744-2.634-2.496-2.637
			C501.585,498.18,496.456,498.186,490.341,498.186z"/>
		<path fill-rule="evenodd" clip-rule="evenodd" fill="#FDF9F9" d="M683.989,503.098c-5.996-3.264-11.234-4.961-17.984,2.586
			c2.648-9.486,1.266-15.391-6.545-19.827c7.455-0.561,14.623,1.438,15.609-8.66c2.881,7.619,7.631,10.4,16.912,7.79
			C686.138,490.813,679.011,494.325,683.989,503.098z"/>
		<path fill-rule="evenodd" clip-rule="evenodd" fill="#FDF9F9" d="M431.604,501.466c2.436-8.956,2.74-15.123-6.3-19.192
			c7.619-1.27,14.804,0.537,15.869-8.889c2.76,7.444,7.461,9.883,15.98,7.846c-5.438,5.678-10.697,9.893-5.414,18.911
			C443.894,495.967,438.321,494.101,431.604,501.466z"/>
		<path fill-rule="evenodd" clip-rule="evenodd" fill="#FDF9F9" d="M548.03,499.31c5.504-6.697,0.932-10.778-4.678-14.588
			c4.604-3.116,11.424,1.218,13.633-5.746c0.479-1.51,2.525-0.189,2.875,0.501c3.018,5.977,8.922,3.424,14.689,4.798
			c-6.105,4.765-12.926,8.905-6.27,18.386c-6.459-8.965-13.926-1.414-20.268-3.356L548.03,499.31z"/>
		<path fill-rule="evenodd" clip-rule="evenodd" fill="#FDF9F9" d="M609.247,503.672c-1.723-5.915,2.723-13.995-7.592-17.295
			c5.607-2.318,12.848,0.872,13.611-7.383c0.145-1.561,3.252-1.567,3.438-0.036c0.998,8.224,8.055,5.243,13.939,7.174
			c-5.479,2.914-8.395,6.192-7.828,11.841c0.291,2.9-1.381,3.745-4.707,2.258c-4.035-1.806-8.348-1.31-10.838,3.395L609.247,503.672
			z"/>
		<path fill-rule="evenodd" clip-rule="evenodd" fill="#FDF9F9" d="M372.412,484.159c8.291,0,16.582,0,24.873,0
			c-0.002,0.104-0.004,0.209-0.004,0.313c-8.291,0-16.582,0-24.873,0C372.41,484.368,372.41,484.264,372.412,484.159z"/>
		<path fill-rule="evenodd" clip-rule="evenodd" fill="#FDF9F9" d="M745.593,490.069c-8.402,0-16.805,0-25.207,0
			c0.002-0.11,0.004-0.22,0.006-0.331c8.402,0,16.805,0,25.207,0C745.597,489.85,745.595,489.959,745.593,490.069z"/>
		<path fill-rule="evenodd" clip-rule="evenodd" fill="#FDF9F9" d="M548.013,499.304c0.613,0.528,1.229,1.056,1.842,1.582
			c-0.352,0.284-0.701,0.567-1.051,0.852c-0.256-0.811-0.514-1.621-0.771-2.43C548.03,499.31,548.013,499.304,548.013,499.304z"/>
		<path fill-rule="evenodd" clip-rule="evenodd" fill="#FDF9F9" d="M609.271,503.625c-0.492-0.353-0.986-0.706-1.479-1.061
			c0.244-0.188,0.488-0.375,0.732-0.563c0.244,0.552,0.486,1.103,0.727,1.663C609.247,503.672,609.271,503.625,609.271,503.625z"/>
		<path fill-rule="evenodd" clip-rule="evenodd" fill="#FD1920" d="M113.617,279.032c-15.967,18.219-29.653,38.415-50.752,51.232
			c-4.406,2.677-9.459,6.198-14.41,2.405c-5.248-4.022-2.875-10.13-1.605-15.312c1.247-5.09,4.02-9.611,7.871-13.27
			C71.169,288.468,92.132,283.409,113.617,279.032z"/>
		<path fill-rule="evenodd" clip-rule="evenodd" fill="#FD1920" d="M95.726,412.068c-12.986-17.462-7.26-41.632,11.656-53.553
			c3.902-2.46,11.323-7.545,12.269-4.847c2.212,6.306,6.782,13.68,2.455,20.865c-2.881,4.782-5.065,9.771-7.039,14.917
			c-0.769,2.001-1.673,3.97-2.225,6.03c-1.312,4.907-4.245,6.099-7.928,2.815c-8.826-7.87-8.597-1.21-8.777,5.175
			C96.069,405.89,95.91,408.305,95.726,412.068z"/>
		<path fill-rule="evenodd" clip-rule="evenodd" fill="#FD1920" d="M263.852,176.55c-3.897,14.73-7.812,29.455-11.677,44.194
			c-0.711,2.715-2.16,4.192-5.128,4.17c-9.044-0.064-18.088-0.023-28.628-0.023c15.025-17.052,29.27-33.216,43.516-49.382
			C262.574,175.854,263.212,176.202,263.852,176.55z"/>
		<path fill-rule="evenodd" clip-rule="evenodd" fill="#FD1920" d="M118.101,400.749c10.854-7.963,20.946-11.389,31.047-14.458
			c9.955-3.026,20.211-5.056,30.31-7.621c3.855-0.978,6.237,0.607,6.497,4.251c0.302,4.226-3.34,2.343-5.258,2.455
			c-11.922,0.688-22.781,4.977-33.182,10.24C138.955,399.947,130.117,401.055,118.101,400.749z"/>
		<path fill-rule="evenodd" clip-rule="evenodd" fill="#FD1920" d="M223.75,466.871c-0.407,7.525-14.907,19.235-22.179,18.043
			c-2.1-0.344-2.227-1.404-2.049-3.15c0.637-6.265,10.31-18.408,16.357-20.063C220.273,460.499,224.052,460.736,223.75,466.871z"/>
		<path fill-rule="evenodd" clip-rule="evenodd" fill="#FD1920" d="M266.416,478.855c-2.915-5.108-3.576-10.163-2.982-15.477
			c0.314-2.824,1.768-4.771,4.559-4.823c3.213-0.058,5.127,2.048,5.217,5.214C273.378,469.782,271.527,474.965,266.416,478.855z"/>
	</g>
</g>
</svg>
